<?xml version="1.0" encoding="UTF-8"?>
<svg id="Livello_2" data-name="Livello 2" xmlns="http://www.w3.org/2000/svg" viewBox="0 0 161.29 124.37">
  <defs>
    <style>
      .cls-1 {
        stroke-width: 0px;
      }
    </style>
  </defs>
  <g id="Livello_1-2" data-name="Livello 1">
    <g>
      <path class="cls-1" d="m80.69,0c30.99.21,55.11,25.22,55.01,55.22-.11,30.86-25.4,54.93-55.19,54.86-29.84-.07-55.05-24.36-54.94-55.25C25.67,25.05,49.71.15,80.69,0Zm-.03,1.56c-28.74-.22-53.52,23.09-53.6,53.32-.09,30.23,24.45,53.61,53.4,53.71,28.99.1,53.72-23.21,53.74-53.5.02-30.46-24.87-53.72-53.53-53.53Z"/>
      <path class="cls-1" d="m143.75,81.4c-.26-.32-.54-.62-.76-.95-1.25-1.87-2.04-3.91-2.24-6.18-.13-1.45-.22-2.89-.17-4.33.02-.67.1-1.32.32-2.13.83,1.11,1.29,2.25,1.98,3.24.69,1,1.42,1.98,2.32,2.92.3-.12.59-.22.86-.36,2.15-1.1,4.1-2.47,5.84-4.16,2.7-2.62,5.11-5.5,7.44-8.46.42-.53.83-1.07,1.25-1.61.13-.17.29-.31.42-.45.35.17.29.41.27.61-.19,1.52-.34,3.06-.61,4.57-.34,1.91-.88,3.78-1.54,5.62-1.39,3.87-3.83,6.83-7.44,8.82-2.47,1.36-5.08,2.33-7.92,2.85Z"/>
      <path class="cls-1" d="m17.52,81.42c-3.47-.71-6.62-1.9-9.47-3.83-2.76-1.87-4.61-4.44-5.78-7.52-.99-2.59-1.64-5.26-2-8.01-.11-.81-.2-1.61-.27-2.42-.02-.22.03-.44.07-.82.31.31.55.5.73.73,1.66,2.03,3.27,4.1,4.99,6.09,1.27,1.47,2.64,2.86,4.03,4.22,1.56,1.53,3.38,2.72,5.32,3.72.27.14.56.26.86.4.98-.89,1.68-1.95,2.41-2.98.7-.98,1.1-2.14,1.98-3.17.34,1.61.37,3.1.27,4.59-.09,1.21-.22,2.43-.45,3.63-.39,1.99-1.35,3.72-2.69,5.37Z"/>
      <path class="cls-1" d="m158.5,77.24c-.09.3-.14.51-.22.7-1.44,3.44-3.21,6.67-5.59,9.56-2.48,3.03-5.66,4.86-9.48,5.61-1.73.34-3.48.54-5.25.51-.45,0-.91.04-1.36-.3-.51-1.25-.75-2.62-.98-4-.45-2.63-.07-5.22.4-7.8.13-.71.29-1.41.46-2.12.07-.3.21-.58.36-1,.23.29.41.47.53.69,1.01,1.92,2.01,3.84,3.02,5.76.21.39.44.78.66,1.17,1.46.16,2.83-.09,4.19-.44,1.68-.42,3.24-1.11,4.72-2,2.69-1.61,5.11-3.56,7.47-5.62.29-.25.51-.61,1.06-.72Z"/>
      <path class="cls-1" d="m2.83,77.09c.48.42.82.71,1.16,1,2.35,2.05,4.78,4,7.49,5.59,2.46,1.44,5.09,2.3,7.95,2.4.14,0,.27,0,.41,0,.09,0,.17-.04.35-.08.13-.21.32-.45.47-.73,1.01-1.92,2.01-3.84,3.02-5.76.18-.35.4-.68.7-1.16.18.43.33.7.4.98.55,2.19.95,4.42,1.07,6.68.12,2.37-.32,4.67-1.01,6.94-.12.4-.39.59-.78.63-.22.02-.45.05-.68.05-2.82-.01-5.58-.36-8.24-1.34-2.39-.88-4.39-2.31-6.06-4.21-2.72-3.09-4.66-6.64-6.19-10.44-.03-.08-.01-.17-.03-.53Z"/>
      <path class="cls-1" d="m85.89,120.65c.21-.65.57-1,.9-1.36,1.51-1.68,3.37-2.86,5.46-3.69,2.36-.94,4.78-1.66,7.28-2.11,4.87-.86,9.6-2.21,14.17-4.08.46-.19.92-.35,1.47-.56.03.22.09.39.06.54-.08.49-.2.97-.3,1.46-.26,1.33.1,2.41,1.28,3.16.11.07.23.14.34.22.11.08.2.17.38.32-.15.12-.26.26-.41.31-.34.13-.69.2-1.03.34-1.49.59-3.03.8-4.63.82-2.17.04-4.33.26-6.5.42-1.4.1-2.8.2-4.19.35-2.02.21-4.04.49-5.99,1.08-.87.26-1.71.58-2.48,1.09-.18.12-.34.27-.6.49.25.16.41.31.6.39.84.35,1.72.53,2.62.66,1.93.29,3.88.29,5.82.31.45,0,.9.02,1.45.04-.1.23-.13.42-.24.52-.81.79-1.64,1.56-2.44,2.36-.41.41-.88.59-1.45.61-1.59.06-3.17.01-4.73-.26-2.61-.45-4.82-1.71-6.86-3.44Z"/>
      <path class="cls-1" d="m44.41,114.63c.11-.44.52-.51.79-.71.99-.71,1.34-1.67,1.17-2.84-.08-.53-.22-1.06-.32-1.59-.03-.16-.02-.33-.03-.55.59,0,1.02.26,1.46.44,3.48,1.42,7.04,2.57,10.71,3.39,1.54.34,3.1.62,4.65.95,2.75.58,5.42,1.41,7.93,2.7,1.51.77,2.8,1.83,3.91,3.1.26.3.47.64.72.99-.16.19-.26.34-.39.45-2.12,1.69-4.44,2.91-7.2,3.23-1.31.15-2.61.17-3.93.17-.62,0-1.13-.17-1.58-.63-.73-.74-1.5-1.44-2.25-2.17-.15-.15-.26-.34-.48-.62.34-.05.55-.1.75-.11,1.18-.02,2.35-.01,3.53-.05,1.49-.05,2.98-.21,4.44-.52.62-.13,1.23-.3,1.72-.69.04-.32-.2-.42-.38-.54-1.03-.7-2.19-1.08-3.38-1.37-1.85-.45-3.72-.73-5.62-.89-1.53-.13-3.06-.29-4.59-.44-.23-.02-.45-.04-.68-.05-2.21-.1-4.43-.2-6.64-.31-.36-.02-.72-.07-1.06-.17-1-.29-1.98-.62-2.97-.94-.11-.04-.2-.14-.3-.22Z"/>
      <path class="cls-1" d="m2.19,45.43c.38.64.62,1.01.84,1.39,1.47,2.65,3.05,5.23,4.78,7.72,1.29,1.87,2.77,3.57,4.51,5.04.48.41.99.78,1.53,1.2,1.78-1.36,3.29-2.99,5.12-4.42.08.26.18.41.16.55-.42,4.39-1.78,8.38-4.89,11.63-.03.03-.08.04-.22.12-.17-.05-.43-.11-.67-.21-2.72-1.14-5.05-2.81-6.96-5.05-1.34-1.57-2.23-3.39-2.83-5.36-.82-2.69-1.25-5.45-1.4-8.26-.05-.86-.1-1.71-.14-2.57-.02-.49-.06-.98.16-1.79Z"/>
      <path class="cls-1" d="m158.99,45.76c.26.11.24.36.24.58-.08,3.67-.31,7.32-1.28,10.88-1.5,5.47-5.33,9.61-10.65,11.45-.5-.14-.74-.61-1.05-.98-2.08-2.55-3.31-5.47-3.83-8.71-.13-.79-.42-1.58-.22-2.39.36-.22.52.08.7.24,1.09.95,2.16,1.93,3.24,2.89.37.33.74.66,1.16,1.04.27-.17.55-.3.79-.48,1.68-1.31,3.19-2.81,4.48-4.52,2.12-2.83,3.94-5.85,5.67-8.93.2-.35.42-.69.63-1.04.02-.02.08-.02.12-.03Z"/>
      <path class="cls-1" d="m141.34,43.9c1.09.23,2.01.9,3.06,1.26,1.06.36,2.1.82,3.28.95.21-.22.44-.42.63-.67,1.06-1.36,1.91-2.84,2.56-4.44.96-2.39,1.71-4.85,2.4-7.33.09-.34.11-.72.5-.95.41.98.49,2.02.63,3.02.18,1.38.26,2.79.32,4.18.18,4.73-1.42,8.86-4.31,12.53-.53.67-1.1,1.31-1.67,1.95-.17.2-.41.34-.64.53-.26-.17-.49-.29-.7-.46-1.22-1.01-2.34-2.12-3.35-3.34-1.66-2.01-2.57-4.33-2.83-6.91,0-.08.06-.16.13-.32Z"/>
      <path class="cls-1" d="m7.58,32.54c.18.51.32.84.41,1.17.7,2.52,1.47,5.02,2.46,7.45.67,1.64,1.59,3.14,2.69,4.53.11.14.2.3.29.44,2.38-.34,4.36-1.42,6.51-2.31.05.27.11.43.1.59-.29,2.63-1.28,4.96-3.02,6.97-.95,1.1-1.97,2.12-3.08,3.05-.21.17-.43.31-.68.49-.17-.09-.36-.15-.47-.27-2.4-2.45-4.3-5.23-5.4-8.5-.53-1.59-.78-3.24-.84-4.92-.1-2.77.19-5.5.8-8.2.02-.08.07-.16.22-.49Z"/>
      <path class="cls-1" d="m33.1,103.94c-1.4.15-2.67.1-3.93.03-2.3-.14-4.59-.4-6.81-1.04-3.26-.94-5.97-2.75-8.24-5.24-.17-.18-.27-.43-.45-.72.89-.11,1.62.17,2.37.27,2.28.29,4.55.7,6.84.93,1.34.14,2.71.02,4.07.03.61,0,.98-.3,1.27-.83.92-1.68,1.57-3.45,1.96-5.32.15-.7.29-1.41.42-2.07.27-.1.41-.01.49.18,1.13,2.62,1.99,5.31,2.25,8.19.15,1.64,0,3.25-.09,4.87-.01.22-.08.43-.15.74Z"/>
      <path class="cls-1" d="m130.52,89.65c.14.48.24.72.29.96.38,2.1.88,4.15,1.89,6.05.81,1.52.56,1.48,2.48,1.56,2.18.09,4.33-.12,6.48-.46,1.78-.28,3.57-.57,5.35-.84.16-.03.34.03.56.05-.18.56-.56.89-.9,1.24-2.37,2.4-5.15,4.12-8.45,4.91-3.14.75-6.33.99-9.56.88-.13,0-.26-.06-.38-.09-1.08-3.59-.21-9.75,2.24-14.26Z"/>
      <path class="cls-1" d="m118.54,111.85c-.22-2.15-.21-4.21.61-6.18.4-.96.85-1.9,1.39-2.78.92-1.5,1.93-2.95,2.92-4.4.17-.25.41-.45.7-.76.39,1.59.36,3.07.47,4.53.12,1.48.26,2.96.39,4.4.49.35.99.43,1.46.55,2.53.62,5.1.62,7.68.42,1.13-.09,2.25-.15,3.38-.22.07,0,.15.07.23.11-.02.08-.01.2-.06.24-2.55,2.01-5.36,3.52-8.53,4.26-1.05.25-2.12.42-3.22.44-2.13.04-4.25.04-6.35-.31-.34-.06-.68-.18-1.07-.29Z"/>
      <path class="cls-1" d="m42.62,111.84c-.14.06-.29.18-.46.2-3.6.54-7.21.75-10.77-.21-2.92-.79-5.51-2.26-7.89-4.11-.06-.05-.07-.16-.11-.24.1-.23.29-.12.45-.11,2.26.11,4.51.39,6.77.34,1.55-.03,3.06-.28,4.56-.61.3-.07.59-.2.91-.32.29-.64.29-1.31.34-1.99.16-2.12.34-4.23.52-6.35.02-.2.09-.4.15-.67.19.12.33.17.4.27,1.67,2.2,3.22,4.48,4.38,7,.96,2.08,1.12,4.26.88,6.5,0,.08-.07.16-.12.28Z"/>
      <path class="cls-1" d="m116.57,1.83c.48.03.71,0,.92.06,1.19.29,2.36.68,3.4,1.33,1.61,1.01,3.18,2.07,4.76,3.12.49.32.95.68,1.49,1.07.22-.55.06-1.03.06-1.5,0-.49-.06-.98-.09-1.43.32-.2.47,0,.63.15,2.73,2.4,4.85,5.24,6.04,8.71.26.77.52,1.54.75,2.32.09.29.08.61.12.98-.3.08-.55.18-.8.21-1.87.18-3.58-.31-5.19-1.25-1.1-.64-2.06-1.46-2.98-2.34-1.87-1.79-3.54-3.76-5.11-5.8-1.05-1.36-2.05-2.76-3.05-4.16-.29-.4-.54-.83-.94-1.46Z"/>
      <path class="cls-1" d="m44.56,1.86c-.1.26-.14.44-.23.57-2.56,3.73-5.23,7.36-8.47,10.54-.77.76-1.61,1.46-2.47,2.11-1.05.8-2.25,1.33-3.55,1.61-1.02.23-2.04.24-3.14.03,0-.35-.07-.66,0-.94,1.01-3.72,2.62-7.11,5.44-9.83.49-.47.98-.94,1.47-1.4.09-.09.22-.13.41-.24.23.55.04,1.08.04,1.59,0,.49-.06.98-.1,1.51.43-.05.66-.35.94-.55,1.74-1.29,3.52-2.53,5.41-3.61,1.06-.61,2.2-1.05,3.39-1.34.25-.06.51-.03.87-.05Z"/>
      <path class="cls-1" d="m15.27,21.28c.03.26.09.52.09.77,0,1.13-.04,2.26,0,3.39.06,1.94.13,3.88.27,5.82.08,1.12.31,2.23.68,3.27,2.23.38,3.09.24,6.68-1.28.26.16.18.37.09.58-.6,1.37-1.28,2.69-2.1,3.94-1.5,2.31-3.6,3.89-6.1,4.98-.12.05-.25.06-.42.09-.11-.14-.24-.27-.32-.42-1.24-2.58-2.09-5.29-2.38-8.15-.19-1.86.06-3.69.48-5.51.57-2.43,1.45-4.74,2.53-6.99.08-.16.19-.3.3-.44.02-.03.08-.02.19-.05Z"/>
      <path class="cls-1" d="m138.13,33.26c1.42.47,2.74.95,4.08,1.34.46.14.99.09,1.49.09.4,0,.8-.04,1.22-.07.48-1.34.68-2.67.78-4.03.2-2.71.27-5.42.21-8.14,0-.32,0-.63.03-.95,0-.07.09-.14.19-.29.14.21.28.37.37.56,1.1,2.34,2,4.74,2.59,7.27.65,2.8.58,5.56-.13,8.32-.4,1.58-.94,3.11-1.63,4.59-.13.28-.31.54-.45.8-1.4-.25-3.5-1.51-4.95-2.97-1.59-1.59-3.49-4.83-3.79-6.54Z"/>
      <path class="cls-1" d="m24.51,11.83c-.21,1.15-.43,2.29-.62,3.44-.24,1.39-.3,2.78-.16,4.19.05.5.13.99.48,1.44,1.76.65,3.39-.16,5.02-.64.29.37.03.58-.09.78-2.15,3.43-4.92,6.24-8.5,8.19-.71.39-1.38.85-2.13,1.06-.37-.18-.3-.47-.31-.73-.05-2.45.31-4.85.78-7.26.71-3.68,2.31-6.92,4.63-9.83.22-.27.48-.52.72-.77.07.04.13.09.2.13Z"/>
      <path class="cls-1" d="m143,30.28c-1.57-.3-5.57-2.98-7.2-4.6-1.63-1.62-3.5-4.14-3.89-5.37.2.01.37,0,.53.04.52.16,1.03.33,1.54.52.61.23,1.24.27,1.87.24,1.16-.05,1.49.02,1.68-1.58.17-1.4.1-2.8-.14-4.19-.19-1.07-.41-2.13-.61-3.19-.02-.12.02-.26.05-.52.29.27.53.44.71.67,2.17,2.72,3.82,5.7,4.57,9.13.56,2.56,1.02,5.14.97,7.78,0,.35-.06.7-.09,1.06Z"/>
      <path class="cls-1" d="m80.5,106.9c-29.66-.28-52.01-24.43-51.72-52.38.29-27.76,22.85-51.47,52.26-51.26,29.22.22,51.72,24.14,51.44,52.34-.28,27.71-22.71,51.19-51.98,51.3Zm49.26-51.81c.14-26.9-21.82-49.06-48.96-49.16-26.36-.1-49.31,20.98-49.32,49.1,0,27.83,22.42,49.09,48.99,49.16,27.85.07,49.43-22.58,49.3-49.09Z"/>
      <path class="cls-1" d="m76.94,56.66c-.76.03-1.53.05-2.29.11-1.98.14-3.95.38-5.9.78-1.58.32-2.43,1.19-2.74,2.75-.32,1.64-.58,3.29-.7,4.96-.05.76-.17,1.52-.26,2.29-.01.11-.1.22-.24.52-.04-.78-.06-1.37-.1-1.95-.13-1.94-.3-3.87-.78-5.76-.04-.18-.08-.35-.12-.53-.26-1.18-1-1.9-2.18-2.15-1.1-.23-2.21-.48-3.33-.61-1.53-.17-3.06-.24-4.59-.35-.21-.02-.43-.05-.65-.18,1.03-.12,2.05-.28,3.09-.34,1.54-.09,3.06-.31,4.57-.59.44-.08.88-.22,1.31-.35.84-.25,1.37-.79,1.65-1.64.39-1.21.62-2.45.75-3.71.15-1.44.23-2.88.34-4.32.01-.17.05-.34.11-.7.28.96.4,1.76.43,2.57.05,1.59.29,3.15.58,4.7.09.49.25.96.38,1.44.25.92.86,1.48,1.76,1.7.96.24,1.93.47,2.92.6,1.79.24,3.59.39,5.39.59.21.02.41.06.62.09,0,.04,0,.08,0,.12Z"/>
      <path class="cls-1" d="m90.92,49.34c-.13-1.3-.23-2.61-.41-3.9-.12-.89-.33-1.77-.54-2.65-.16-.67-.58-1.12-1.26-1.29-.7-.18-1.4-.39-2.11-.48-1.25-.16-2.52-.24-3.78-.35-.22-.02-.45-.04-.96-.08,1.2-.26,2.13-.39,3.06-.48,1.08-.11,2.14-.34,3.21-.49,1.21-.17,1.83-.92,2.02-2.05.23-1.43.42-2.86.6-4.29.07-.58.09-1.17.19-1.75.21.58.17,1.18.24,1.77.07.63.13,1.26.23,1.88.14.89.31,1.78.48,2.66.18.95.76,1.53,1.7,1.71,1.06.21,2.13.39,3.2.55.98.14,1.97.23,2.95.42-.54.19-1.1.13-1.64.2-1.34.17-2.68.36-4.03.54-.04,0-.09.02-.13.02-1.24.17-1.92.91-2.14,2.11-.15.8-.29,1.6-.39,2.41-.15,1.16-.25,2.33-.38,3.5-.04.01-.08.03-.11.04Z"/>
      <path class="cls-1" d="m96.33,60.05c.45.78.46,1.41.49,2.04.06,1.13.26,2.24.51,3.34.22.96.78,1.5,1.71,1.69.8.16,1.6.31,2.4.42,1.07.15,2.15.25,3.45.4-.67.24-1.15.16-1.61.22-1.3.17-2.59.35-3.89.53-.18.02-.35.08-.53.12-.77.19-1.25.67-1.46,1.44-.32,1.14-.51,2.29-.58,3.47-.04.67-.03,1.35-.43,2.08-.15-.55-.1-1.02-.16-1.48-.17-1.25-.36-2.5-.54-3.75-.16-1.09-.85-1.67-1.89-1.84-1.34-.21-2.68-.39-4.02-.56-.53-.07-1.08-.07-1.62-.24,1.1-.13,2.2-.23,3.3-.39.94-.14,1.86-.34,2.79-.52.75-.15,1.16-.66,1.36-1.36.34-1.22.51-2.48.61-3.74.04-.54.06-1.08.11-1.88Z"/>
      <path class="cls-1" d="m50.75,79.3c-1.27,0-2.34-1.07-2.34-2.32,0-1.32,1.11-2.41,2.44-2.37,1.27.04,2.28,1.11,2.26,2.4-.02,1.29-1.06,2.3-2.35,2.29Z"/>
      <path class="cls-1" d="m112.88,32.39c-.03,1.3-1.21,2.41-2.48,2.33-1.27-.07-2.26-1.14-2.24-2.42.02-1.35,1.08-2.34,2.46-2.29,1.3.05,2.29,1.09,2.26,2.37Z"/>
      <path class="cls-1" d="m84.45,61.19c1.29,0,2.33,1.03,2.34,2.31,0,1.26-1.03,2.34-2.29,2.38-1.29.04-2.42-1.09-2.4-2.41.02-1.28,1.07-2.29,2.36-2.29Z"/>
      <path class="cls-1" d="m123,34.77c1.24,0,2.33,1.1,2.35,2.34.02,1.31-1.1,2.38-2.44,2.34-1.3-.04-2.27-1.06-2.26-2.37.02-1.26,1.1-2.32,2.35-2.32Z"/>
      <path class="cls-1" d="m100.06,53.43c.1.34.25.68.3,1.03.16,1.16-.61,2.29-1.72,2.55-1.24.29-2.4-.32-2.83-1.48-.39-1.07.12-2.33,1.16-2.86.79-.41,1.56-.37,2.3.11.3.19.55.46.82.69l-.04-.04Z"/>
      <path class="cls-1" d="m71.79,79.87c.04,1.21-1.03,2.35-2.28,2.41-1.29.06-2.36-.92-2.41-2.21-.06-1.33.87-2.39,2.15-2.47,1.31-.08,2.49.98,2.53,2.28Z"/>
      <path class="cls-1" d="m83.04,75.44c-.02,1.32-1.05,2.28-2.38,2.23-1.25-.04-2.2-1.03-2.2-2.29,0-1.29,1.07-2.4,2.32-2.33,1.2.06,2.31.93,2.25,2.39Z"/>
      <path class="cls-1" d="m82.78,49.33c-.01,1.2-.97,2.21-2.13,2.17-1.18-.04-2.22-.9-2.16-2.28.05-1.21.98-2.1,2.2-2.07,1.2.02,2.11.97,2.09,2.18Z"/>
      <path class="cls-1" d="m39.25,62.53c-.03,1.05-.86,1.85-1.92,1.84-1.02,0-1.9-.87-1.91-1.88-.02-1.02,1-2.01,2.01-1.94,1.03.07,1.84.96,1.82,1.97Z"/>
      <path class="cls-1" d="m117.73,43.37c1.05,0,1.9.81,1.92,1.84.02,1.06-.93,2.02-1.97,1.98-1-.04-1.87-.95-1.87-1.95,0-.99.89-1.87,1.91-1.87Z"/>
      <path class="cls-1" d="m124.84,70.63c0,1.05-.79,1.87-1.85,1.9-1.09.03-2.01-.86-1.98-1.93.03-.99.93-1.86,1.94-1.87,1,0,1.88.88,1.89,1.89Z"/>
      <path class="cls-1" d="m72.7,29.03c0,1.06-.81,1.9-1.85,1.91-1.08.01-1.98-.91-1.94-1.98.04-1.01.94-1.89,1.94-1.85.97.04,1.88.81,1.85,1.92Z"/>
      <path class="cls-1" d="m41.13,47.45c1.01.03,1.88.93,1.87,1.93-.02.99-.93,1.9-1.92,1.9-1.06,0-1.97-.97-1.91-2.02.05-1.04.92-1.83,1.97-1.8Z"/>
      <path class="cls-1" d="m104.72,46.89c.03,1.01-.81,1.92-1.82,1.97-1.05.06-2.02-.86-2.02-1.91,0-.99.9-1.9,1.89-1.92,1-.02,1.91.86,1.94,1.86Z"/>
      <path class="cls-1" d="m124.05,46.8c1.06,0,1.9.81,1.9,1.88,0,1.08-.8,1.86-1.89,1.88-1.23.01-1.89-.95-1.93-1.86-.04-1.01.88-1.88,1.92-1.89Z"/>
      <path class="cls-1" d="m63.06,14.51c-1.05.02-1.91-.79-1.94-1.84-.03-1.1.73-1.91,1.81-1.93,1.09-.03,1.92.75,1.95,1.81.03,1.05-.8,1.94-1.83,1.96Z"/>
      <path class="cls-1" d="m63.09,86.11c-1.07,0-1.92-.84-1.89-1.87.03-.98.84-1.74,1.85-1.79.98-.04,1.88.77,1.89,1.88,0,.97-.87,1.77-1.85,1.78Z"/>
      <path class="cls-1" d="m89.99,56.55c.04-1,.87-1.69,1.77-1.67.95.03,1.66.68,1.71,1.73.04.96-.9,1.81-1.84,1.74-.93-.07-1.66-.88-1.63-1.81Z"/>
      <path class="cls-1" d="m92.49,87.29c-.04.99-.82,1.66-1.74,1.71-.87.04-1.73-.84-1.75-1.72-.02-.94.9-1.83,1.83-1.77.93.06,1.68.86,1.67,1.78Z"/>
      <path class="cls-1" d="m54.57,26.5c.96.01,1.75.81,1.72,1.74-.03.94-.82,1.68-1.79,1.66-.96-.01-1.74-.8-1.72-1.73.02-.94.82-1.68,1.79-1.67Z"/>
      <path class="cls-1" d="m89.44,12.6c-.04.89-.91,1.71-1.79,1.69-.9-.03-1.72-.86-1.72-1.75,0-.97.88-1.8,1.85-1.74.89.05,1.7.93,1.66,1.8Z"/>
      <path class="cls-1" d="m94.88,11.19c0-.92.75-1.72,1.68-1.76.94-.04,1.83.83,1.81,1.78-.02.89-.88,1.72-1.76,1.7-.91-.02-1.72-.83-1.73-1.73Z"/>
      <path class="cls-1" d="m80.31,57.33c-.96-.02-1.74-.81-1.71-1.74.03-.94.84-1.68,1.8-1.66.96.03,1.74.83,1.71,1.75-.04.94-.83,1.67-1.8,1.65Z"/>
      <path class="cls-1" d="m57.48,77.68c-.97,0-1.73-.75-1.74-1.7,0-.95.75-1.7,1.73-1.71.99,0,1.73.72,1.74,1.69,0,.94-.77,1.71-1.73,1.71Z"/>
      <path class="cls-1" d="m62,88.79c.2-.29.38-.61.62-.87.55-.59,1.29-.7,1.98-.36.73.37,1.12,1.16.95,1.91-.16.7-.81,1.28-1.53,1.35-.78.08-1.51-.38-1.79-1.16-.1-.29-.12-.62-.18-.93l-.04.05Z"/>
      <path class="cls-1" d="m38.15,66.17c.97.02,1.69.77,1.67,1.74-.02.99-.74,1.67-1.74,1.66-.98-.02-1.69-.74-1.67-1.73.01-.96.77-1.69,1.74-1.67Z"/>
      <path class="cls-1" d="m87.65,79.05c-.03.98-.75,1.66-1.76,1.64-.96-.02-1.68-.78-1.66-1.75.02-.96.79-1.67,1.76-1.65.97.02,1.67.78,1.65,1.76Z"/>
      <path class="cls-1" d="m96.62,45.91c-.84.02-1.48-.57-1.52-1.4-.04-.86.65-1.62,1.47-1.63.81,0,1.59.78,1.56,1.57-.03.8-.7,1.44-1.5,1.45Z"/>
      <path class="cls-1" d="m120.07,60.21c-.75.02-1.5-.68-1.53-1.44-.04-.77.62-1.49,1.4-1.55.83-.06,1.62.67,1.6,1.48-.01.76-.72,1.48-1.47,1.5Z"/>
      <path class="cls-1" d="m90.06,53.8c.03.77-.61,1.49-1.38,1.54-.78.06-1.59-.7-1.58-1.49,0-.74.71-1.45,1.47-1.48.75-.03,1.46.66,1.49,1.43Z"/>
      <path class="cls-1" d="m98.09,37.57c-.01-.81.62-1.49,1.42-1.51.8-.02,1.46.63,1.47,1.45,0,.8-.64,1.5-1.41,1.52-.76.02-1.46-.68-1.47-1.46Z"/>
      <path class="cls-1" d="m103.87,55.68c.8.04,1.45.76,1.39,1.53-.05.73-.72,1.35-1.45,1.35-.76,0-1.42-.74-1.37-1.54.04-.74.72-1.38,1.43-1.34Z"/>
      <path class="cls-1" d="m99.69,43.34c.02-.79.59-1.34,1.37-1.35.8,0,1.48.67,1.44,1.44-.03.76-.77,1.41-1.54,1.35-.76-.06-1.29-.66-1.27-1.45Z"/>
      <path class="cls-1" d="m100.09,53.47c-.08-.26-.2-.51-.24-.77-.09-.58.26-1.19.78-1.44.55-.26,1.18-.14,1.61.31.4.42.48,1.13.19,1.63-.3.52-.89.78-1.51.62-.3-.08-.57-.25-.86-.38l.04.04Z"/>
      <path class="cls-1" d="m82.56,59.94c.03.69-.53,1.32-1.21,1.38-.71.06-1.4-.6-1.4-1.33,0-.67.63-1.31,1.29-1.31.68,0,1.3.59,1.33,1.27Z"/>
      <path class="cls-1" d="m98.68,59.64c.72-.02,1.31.51,1.36,1.2.06.72-.58,1.36-1.35,1.35-.88,0-1.27-.73-1.3-1.27-.03-.68.58-1.27,1.28-1.29Z"/>
      <path class="cls-1" d="m76.17,63.08c.69,0,1.31.58,1.34,1.25.03.72-.64,1.39-1.37,1.36-.67-.02-1.3-.67-1.28-1.32.02-.69.62-1.28,1.31-1.29Z"/>
      <path class="cls-1" d="m39.12,78.46c-.02-.72.51-1.32,1.19-1.37.73-.05,1.39.58,1.38,1.33,0,.68-.62,1.33-1.28,1.31-.57-.02-1.29-.4-1.3-1.27Z"/>
      <path class="cls-1" d="m107.14,27.71c-.72.01-1.31-.51-1.36-1.21-.05-.67.52-1.31,1.22-1.35.76-.05,1.46.56,1.43,1.28-.03.66-.5,1.29-1.29,1.28Z"/>
      <path class="cls-1" d="m67.99,67.81c-.68-.04-1.29-.66-1.29-1.32,0-.71.74-1.4,1.42-1.32.66.08,1.27.77,1.22,1.39-.05.65-.73,1.29-1.36,1.25Z"/>
      <path class="cls-1" d="m64.14,29.53c.04.63-.57,1.31-1.24,1.37-.63.05-1.32-.53-1.41-1.2-.09-.68.58-1.41,1.3-1.43.66-.02,1.29.58,1.34,1.26Z"/>
      <path class="cls-1" d="m115.51,28.13c.71,0,1.31.55,1.33,1.24.03.73-.62,1.35-1.38,1.32-.69-.02-1.26-.62-1.26-1.31,0-.68.6-1.25,1.31-1.25Z"/>
      <path class="cls-1" d="m53.25,65.69c-.04.69-.66,1.26-1.35,1.24-.69-.03-1.29-.64-1.29-1.3,0-.71.72-1.37,1.42-1.31.67.06,1.25.72,1.21,1.38Z"/>
      <path class="cls-1" d="m59.65,70.06c-.02.69-.63,1.31-1.3,1.27-.63-.04-1.33-.52-1.27-1.44.04-.68.71-1.25,1.37-1.2.7.06,1.22.65,1.2,1.37Z"/>
      <path class="cls-1" d="m91.43,62.6c.72,0,1.31.57,1.31,1.25,0,.74-.66,1.36-1.4,1.31-.68-.04-1.27-.68-1.24-1.34.03-.7.61-1.23,1.34-1.23Z"/>
      <path class="cls-1" d="m121.54,41.76c-.01.66-.63,1.27-1.31,1.29-.67.02-1.3-.59-1.32-1.27-.02-.72.67-1.41,1.37-1.36.67.05,1.27.68,1.26,1.34Z"/>
      <path class="cls-1" d="m48.46,86.94c-.72,0-1.3-.55-1.31-1.25-.02-.66.59-1.28,1.27-1.31.75-.03,1.39.59,1.37,1.34-.02.69-.6,1.23-1.33,1.22Z"/>
      <path class="cls-1" d="m64.2,69.95c.04.64-.56,1.33-1.22,1.39-.64.05-1.33-.54-1.4-1.2-.07-.71.57-1.44,1.28-1.45.65-.01,1.31.6,1.35,1.26Z"/>
      <path class="cls-1" d="m87.37,71.46c-.73.02-1.31-.48-1.37-1.19-.07-.71.58-1.38,1.33-1.37.69,0,1.3.6,1.32,1.27.01.68-.57,1.27-1.28,1.29Z"/>
      <path class="cls-1" d="m56.07,60.06c-.72,0-1.3-.53-1.34-1.22-.04-.71.63-1.37,1.38-1.34.69.03,1.29.65,1.27,1.31-.02.69-.6,1.25-1.31,1.25Z"/>
      <path class="cls-1" d="m46.71,54.81c0-.72.54-1.3,1.24-1.32.71-.03,1.37.65,1.33,1.39-.03.68-.67,1.28-1.33,1.26-.7-.03-1.24-.61-1.24-1.32Z"/>
      <path class="cls-1" d="m115.21,84.5c-.72-.02-1.3-.59-1.29-1.27,0-.69.59-1.28,1.27-1.3.75-.02,1.37.61,1.35,1.36-.02.7-.6,1.22-1.34,1.21Z"/>
      <path class="cls-1" d="m68.51,51.48c-.67-.01-1.3-.63-1.31-1.29-.01-.7.7-1.39,1.39-1.35.67.04,1.26.69,1.24,1.36-.02.67-.66,1.29-1.32,1.27Z"/>
      <path class="cls-1" d="m90.27,81.53c-.71,0-1.29-.57-1.31-1.26-.01-.65.6-1.28,1.28-1.31.73-.03,1.41.64,1.37,1.35-.04.7-.62,1.23-1.34,1.22Z"/>
      <path class="cls-1" d="m110.21,63.78c-.03.73-.58,1.23-1.32,1.21-.7-.02-1.26-.6-1.25-1.3,0-.69.59-1.28,1.27-1.29.75-.01,1.33.61,1.3,1.39Z"/>
      <path class="cls-1" d="m115.27,39.44c0,.66-.63,1.27-1.31,1.28-.68.01-1.31-.58-1.35-1.24-.04-.72.61-1.35,1.38-1.33.7.02,1.29.61,1.28,1.29Z"/>
      <path class="cls-1" d="m57.1,79.77c-.03.68-.64,1.27-1.32,1.27-.73,0-1.39-.7-1.32-1.4.06-.66.74-1.25,1.39-1.21.66.04,1.29.71,1.26,1.34Z"/>
      <path class="cls-1" d="m105.04,36.54c.71.02,1.3.6,1.28,1.28-.01.69-.6,1.27-1.29,1.29-.75.01-1.37-.62-1.34-1.36.03-.7.61-1.22,1.35-1.2Z"/>
      <path class="cls-1" d="m66.81,76.89c-.71-.06-1.22-.69-1.14-1.39.09-.71.69-1.22,1.39-1.17.68.04,1.24.67,1.22,1.35-.03.74-.69,1.28-1.47,1.21Z"/>
      <path class="cls-1" d="m111.65,35.47c.02-.7.62-1.28,1.3-1.27.66.01,1.27.64,1.27,1.32,0,.73-.69,1.4-1.39,1.33-.72-.07-1.21-.64-1.18-1.38Z"/>
      <path class="cls-1" d="m86.41,100.9c.02-.7.62-1.3,1.28-1.28.74.02,1.35.68,1.29,1.42-.05.68-.68,1.23-1.37,1.21-.7-.03-1.23-.62-1.21-1.34Z"/>
      <path class="cls-1" d="m111.59,48.27c.02.73-.5,1.32-1.19,1.37-.71.05-1.39-.61-1.38-1.34,0-.66.64-1.3,1.29-1.31.69,0,1.27.57,1.29,1.28Z"/>
      <path class="cls-1" d="m62.04,88.74c-.42.13-.83.34-1.26.38-.6.05-1.12-.44-1.22-1.03-.1-.58.22-1.17.77-1.42.53-.24,1.21-.06,1.55.44.12.18.21.41.22.62,0,.35-.06.71-.1,1.06l.04-.05Z"/>
      <path class="cls-1" d="m53.7,86.32c.02.73-.48,1.32-1.17,1.37-.74.05-1.4-.56-1.4-1.3,0-.69.57-1.28,1.27-1.29.73-.02,1.28.5,1.31,1.22Z"/>
      <path class="cls-1" d="m84.13,88.24c-.02.71-.61,1.28-1.3,1.25-.69-.03-1.28-.64-1.27-1.31,0-.74.68-1.37,1.4-1.32.69.05,1.2.64,1.18,1.37Z"/>
      <path class="cls-1" d="m108.68,40.75c-.02-.72.49-1.3,1.21-1.35.64-.05,1.32.55,1.37,1.21.06.73-.57,1.43-1.29,1.43-.68,0-1.26-.58-1.28-1.28Z"/>
      <path class="cls-1" d="m80.8,67.13c-.73.02-1.3-.49-1.36-1.2-.06-.7.61-1.38,1.34-1.37.67.01,1.3.64,1.3,1.29,0,.69-.58,1.26-1.29,1.28Z"/>
      <path class="cls-1" d="m62.37,77.53c-.05.71-.64,1.24-1.35,1.2-.69-.04-1.24-.63-1.22-1.33.02-.76.66-1.33,1.42-1.25.71.07,1.2.66,1.15,1.39Z"/>
      <path class="cls-1" d="m87.45,83.4c-.72-.02-1.28-.61-1.26-1.32.02-.71.62-1.26,1.34-1.24.72.02,1.27.6,1.26,1.32-.02.72-.6,1.26-1.34,1.24Z"/>
      <path class="cls-1" d="m76,69.89c.72,0,1.29.58,1.29,1.3,0,.71-.58,1.3-1.29,1.3-.71,0-1.28-.57-1.28-1.3,0-.73.56-1.3,1.28-1.3Z"/>
      <path class="cls-1" d="m55.06,93.34c-.02.74-.58,1.24-1.34,1.21-.72-.03-1.27-.62-1.23-1.34.04-.7.65-1.25,1.36-1.22.73.03,1.24.6,1.21,1.35Z"/>
      <path class="cls-1" d="m73.83,61.95c-.73-.02-1.28-.58-1.26-1.31.02-.72.59-1.26,1.32-1.25.73.01,1.27.58,1.25,1.31-.01.73-.57,1.26-1.32,1.25Z"/>
      <path class="cls-1" d="m86.85,90.34c-.03.74-.59,1.24-1.35,1.21-.72-.03-1.27-.63-1.23-1.34.04-.71.64-1.24,1.36-1.21.74.03,1.24.59,1.21,1.35Z"/>
      <path class="cls-1" d="m107.03,46.3c.73.02,1.27.59,1.25,1.32-.02.71-.62,1.27-1.33,1.25-.72-.02-1.26-.6-1.24-1.33.02-.74.58-1.26,1.33-1.24Z"/>
      <path class="cls-1" d="m82.17,43.21c0,.71-.56,1.3-1.27,1.32-.72.02-1.29-.54-1.31-1.27-.01-.74.52-1.29,1.26-1.3.73,0,1.31.54,1.32,1.25Z"/>
      <path class="cls-1" d="m38.49,41.33c.02.75-.51,1.3-1.25,1.31-.73.01-1.31-.54-1.33-1.25-.02-.71.55-1.29,1.27-1.31.73-.02,1.3.52,1.31,1.25Z"/>
      <path class="cls-1" d="m78.94,22.3c.02.73-.51,1.31-1.24,1.33-.73.02-1.31-.51-1.33-1.24-.02-.73.51-1.3,1.24-1.32.74-.02,1.31.5,1.33,1.23Z"/>
      <path class="cls-1" d="m110.54,18.61c.73.01,1.29.58,1.27,1.3-.01.71-.59,1.27-1.32,1.26-.73,0-1.27-.57-1.26-1.31,0-.73.57-1.27,1.31-1.26Z"/>
    </g>
  </g>
</svg>